<svg xmlns="http://www.w3.org/2000/svg" width="174.78" height="132.01" viewBox="0 0 174.78 132.01"><defs><style>.cls-1{fill:#faaf40;}.cls-2{fill:#42bfec;}</style></defs><g id="Layer_2" data-name="Layer 2"><g id="Layer_1-2" data-name="Layer 1"><circle class="cls-1" cx="62.33" cy="61.91" r="29.89" transform="translate(-25.27 68.65) rotate(-49.21)"/><path class="cls-1" d="M62.33,23.92a3.76,3.76,0,0,1-3.77-3.76V3.77a3.77,3.77,0,0,1,7.54,0V20.16A3.76,3.76,0,0,1,62.33,23.92Z"/><path class="cls-1" d="M20.16,66.1H3.77a3.77,3.77,0,0,1,0-7.54H20.16a3.77,3.77,0,0,1,0,7.54Z"/><path class="cls-1" d="M32.51,36.28a3.73,3.73,0,0,1-2.66-1.11L18.26,23.58a3.76,3.76,0,0,1,5.32-5.32L35.17,29.85a3.77,3.77,0,0,1-2.66,6.43Z"/><path class="cls-1" d="M20.92,107.51a3.77,3.77,0,0,1-2.66-6.43L29.85,89.49a3.76,3.76,0,0,1,5.32,5.32L23.58,106.4A3.73,3.73,0,0,1,20.92,107.51Z"/><path class="cls-1" d="M92.15,36.28a3.77,3.77,0,0,1-2.66-6.43l11.59-11.59a3.76,3.76,0,1,1,5.32,5.32L94.81,35.17A3.73,3.73,0,0,1,92.15,36.28Z"/><path class="cls-2" d="M145.54,73.54h0c0-.26,0-.5,0-.76a36.26,36.26,0,0,0-72.51,0v.07A29.6,29.6,0,0,0,74.42,132h71.12a29.24,29.24,0,1,0,0-58.47Z"/></g></g></svg>