<svg xmlns="http://www.w3.org/2000/svg" width="129.97" height="128.29" viewBox="0 0 129.97 128.29"><defs><style>.cls-1{fill:#42bfec;}.cls-2{fill:#ade0f3;}</style></defs><g id="Layer_2" data-name="Layer 2"><g id="Layer_1-2" data-name="Layer 1"><path class="cls-1" d="M100.73,37h0c0-.25,0-.5,0-.76a36.26,36.26,0,0,0-72.51,0s0,0,0,.07a29.6,29.6,0,0,0,1.38,59.16h71.12a29.24,29.24,0,1,0,0-58.47Z"/><path class="cls-2" d="M13.48,128.29a3.76,3.76,0,0,1-3.19-5.76L39.56,75.7a3.76,3.76,0,1,1,6.38,4L16.68,126.52A3.77,3.77,0,0,1,13.48,128.29Z"/><path class="cls-2" d="M74.15,128.29a3.72,3.72,0,0,1-2-.57,3.77,3.77,0,0,1-1.2-5.19L91.71,89.34a3.77,3.77,0,1,1,6.39,4L77.35,126.52A3.74,3.74,0,0,1,74.15,128.29Z"/><path class="cls-2" d="M42.75,128.29a3.77,3.77,0,0,1-3.21-5.74l41-66.38a3.77,3.77,0,1,1,6.41,4L46,126.51A3.78,3.78,0,0,1,42.75,128.29Z"/></g></g></svg>