<?xml version="1.0" ?><svg id="Layer_1" style="enable-background:new 0 0 512 512;" version="1.1" viewBox="0 0 512 512" xml:space="preserve" xmlns="http://www.w3.org/2000/svg" xmlns:xlink="http://www.w3.org/1999/xlink"><style type="text/css">
	.st0{fill:#EF3F38;}
	.st1{fill:#FFFFFF;}
</style><g><path class="st0" d="M512,397.1c0,63.5-51.5,114.9-114.9,114.9H114.9C51.5,512,0,460.5,0,397.1V114.9C0,51.4,51.5,0,114.9,0h282.2   C460.5,0,512,51.4,512,114.9V397.1z"/><g><path class="st1" d="M231.6,115.5h-15.9l-10.8,41.3l-11.2-41.3h-16.6c3.3,9.7,6.8,19.6,10.1,29.3c5.1,14.7,8.2,25.8,9.6,33.3v42.6    h15.8v-42.6L231.6,115.5z M273.8,195.4v-27.5c0-8.4-1.4-14.5-4.4-18.5c-3.9-5.4-9.5-8-16.6-8c-7.1,0-12.6,2.7-16.6,8    c-3,4-4.4,10.1-4.4,18.5v27.5c0,8.3,1.4,14.5,4.4,18.5c3.9,5.3,9.5,8,16.6,8c7.1,0,12.6-2.7,16.6-8    C272.3,209.9,273.8,203.7,273.8,195.4z M259.5,198c0,7.3-2.2,10.9-6.8,10.9c-4.6,0-6.8-3.6-6.8-10.9v-33c0-7.3,2.2-10.9,6.8-10.9    c4.6,0,6.8,3.6,6.8,10.9V198z M326.3,220.7v-78.4h-14.2v60c-3.2,4.4-6.1,6.7-9,6.7c-1.9,0-3-1.1-3.3-3.3c-0.2-0.5-0.2-2.2-0.2-5.5    v-57.8h-14.2v62c0,5.5,0.5,9.3,1.3,11.7c1.4,4,4.6,5.8,9.2,5.8c5.2,0,10.6-3.2,16.2-9.6v8.5H326.3z"/><g><path class="st1" d="M281.8,299.8c-2.3,0-4.7,1.1-7,3.4v47.3c2.3,2.3,4.7,3.4,7,3.4c4,0,6.1-3.4,6.1-10.5v-33.1     C287.9,303.4,285.8,299.8,281.8,299.8z"/><path class="st1" d="M334,299.8c-4.7,0-7,3.6-7,10.8v7.2h14v-7.2C341,303.4,338.6,299.8,334,299.8z"/><path class="st1" d="M368.3,260.4c-2.8-12.4-13-21.5-25.2-22.9c-28.9-3.2-58.1-3.2-87.1-3.2c-29.1,0-58.3,0-87.1,3.2     c-12.2,1.3-22.3,10.5-25.2,22.9c-4.1,17.7-4.1,36.9-4.1,55c0,18.1,0,37.4,4.1,55c2.8,12.4,13,21.5,25.1,22.9     c28.9,3.2,58.1,3.2,87.2,3.2c29.1,0,58.3,0,87.2-3.2c12.2-1.4,22.3-10.5,25.2-22.9c4.1-17.6,4.1-36.9,4.1-55     C372.4,297.2,372.4,278,368.3,260.4z M206,276.2h-16.9v89.5h-15.7v-89.5H157v-14.7h49V276.2z M248.5,365.7h-14.1v-8.5     c-5.6,6.4-10.9,9.5-16.1,9.5c-4.5,0-7.7-1.8-9.1-5.8c-0.8-2.4-1.2-6.1-1.2-11.5v-61.4h14.1v57.2c0,3.3,0,5,0.1,5.5     c0.3,2.2,1.4,3.3,3.3,3.3c2.8,0,5.8-2.2,8.9-6.6v-59.3h14.1V365.7z M302,342.4c0,7.2-0.5,12.3-1.4,15.6     c-1.9,5.8-5.6,8.7-11.3,8.7c-5,0-9.8-2.8-14.5-8.6v7.5h-14.1V261.5h14.1v34c4.5-5.6,9.4-8.4,14.5-8.4c5.6,0,9.4,2.9,11.3,8.8     c0.9,3.1,1.4,8.3,1.4,15.6V342.4z M355,329.5h-28.1v13.7c0,7.2,2.3,10.8,7.2,10.8c3.4,0,5.5-1.9,6.3-5.6c0.1-0.8,0.3-3.9,0.3-9.5     H355v2c0,4.5-0.2,7.6-0.3,9.1c-0.5,3.1-1.6,5.9-3.3,8.4c-3.9,5.6-9.7,8.4-17,8.4c-7.4,0-13-2.7-17-7.9c-3-3.9-4.5-10-4.5-18.2     v-27.2c0-8.3,1.3-14.4,4.3-18.3c4.1-5.3,9.7-7.9,16.9-7.9c7,0,12.6,2.6,16.6,7.9c2.9,3.9,4.4,10,4.4,18.3V329.5z"/></g></g></g></svg>