<svg xmlns="http://www.w3.org/2000/svg" width="124.66" height="124.66" viewBox="0 0 124.66 124.66"><defs><style>.cls-1{fill:#faaf40;}</style></defs><g id="Layer_2" data-name="Layer 2"><g id="Layer_1-2" data-name="Layer 1"><circle class="cls-1" cx="62.33" cy="61.91" r="29.89" transform="translate(-12.39 108.12) rotate(-76.54)"/><path class="cls-1" d="M62.33,23.92a3.76,3.76,0,0,1-3.77-3.76V3.77a3.77,3.77,0,0,1,7.54,0V20.16A3.76,3.76,0,0,1,62.33,23.92Z"/><path class="cls-1" d="M62.33,124.66a3.77,3.77,0,0,1-3.77-3.77V104.5a3.77,3.77,0,0,1,7.54,0v16.39A3.77,3.77,0,0,1,62.33,124.66Z"/><path class="cls-1" d="M120.89,66.1H104.5a3.77,3.77,0,0,1,0-7.54h16.39a3.77,3.77,0,0,1,0,7.54Z"/><path class="cls-1" d="M3.77,66.1H20.16a3.77,3.77,0,0,0,0-7.54H3.77a3.77,3.77,0,0,0,0,7.54Z"/><path class="cls-1" d="M32.51,36.28a3.73,3.73,0,0,1-2.66-1.11L18.26,23.58a3.76,3.76,0,0,1,5.32-5.32L35.17,29.85a3.77,3.77,0,0,1-2.66,6.43Z"/><path class="cls-1" d="M103.74,107.51a3.73,3.73,0,0,1-2.66-1.11L89.49,94.81a3.76,3.76,0,0,1,5.32-5.32l11.59,11.59a3.77,3.77,0,0,1-2.66,6.43Z"/><path class="cls-1" d="M20.92,107.51a3.77,3.77,0,0,1-2.66-6.43L29.85,89.49a3.76,3.76,0,0,1,5.32,5.32L23.58,106.4A3.73,3.73,0,0,1,20.92,107.51Z"/><path class="cls-1" d="M92.15,36.28a3.77,3.77,0,0,1-2.66-6.43l11.59-11.59a3.76,3.76,0,1,1,5.32,5.32L94.81,35.17A3.73,3.73,0,0,1,92.15,36.28Z"/></g></g></svg>